<?xml version="1.0" encoding="utf-8"?>
<!-- Generator: Adobe Illustrator 25.2.1, SVG Export Plug-In . SVG Version: 6.00 Build 0)  -->
<svg version="1.1" id="Camada_1" xmlns="http://www.w3.org/2000/svg" xmlns:xlink="http://www.w3.org/1999/xlink" x="0px" y="0px"
	 viewBox="0 0 399.6 399.6" style="enable-background:new 0 0 399.6 399.6;" xml:space="preserve">
<style type="text/css">
	.st0{fill:#FFFFFF;}
</style>
<g>
	<path class="st0" d="M362.6,199.8c0,8.1-0.6,16.3-1.6,24.4c0.2-1.6,0.5-3.3,0.6-4.9c-2.2,15.9-6.4,31.4-12.6,46.2
		c0.6-1.5,1.2-3,1.9-4.4c-6.1,14.4-14.1,28-23.6,40.4c1-1.2,1.9-2.5,2.9-3.7c-9.4,12.1-20.3,23-32.5,32.5c1.2-1,2.5-1.9,3.7-2.9
		C289,337,275.5,344.9,261,351c1.5-0.6,3-1.2,4.4-1.9c-14.8,6.2-30.3,10.5-46.2,12.6c1.6-0.2,3.3-0.5,4.9-0.6
		c-16.2,2.1-32.6,2.1-48.8,0c1.6,0.2,3.3,0.5,4.9,0.6c-15.9-2.2-31.4-6.4-46.2-12.6c1.5,0.6,3,1.2,4.4,1.9
		c-14.4-6.1-28-14.1-40.4-23.6c1.2,1,2.5,1.9,3.7,2.9c-12.1-9.4-23-20.3-32.5-32.5c1,1.2,1.9,2.5,2.9,3.7
		C62.9,289,54.9,275.4,48.8,261c0.6,1.5,1.2,3,1.9,4.4c-6.2-14.8-10.5-30.3-12.6-46.2c0.2,1.6,0.5,3.3,0.6,4.9
		c-2.1-16.2-2.1-32.6,0-48.8c-0.2,1.6-0.5,3.3-0.6,4.9c2.2-15.9,6.4-31.4,12.6-46.2c-0.6,1.5-1.2,3-1.9,4.4
		c6.1-14.4,14.1-28,23.6-40.4c-1,1.2-1.9,2.5-2.9,3.7c9.4-12.1,20.3-23,32.5-32.5c-1.2,1-2.5,1.9-3.7,2.9
		c12.4-9.6,25.9-17.5,40.4-23.6c-1.5,0.6-3,1.2-4.4,1.9c14.8-6.2,30.3-10.5,46.2-12.6c-1.6,0.2-3.3,0.5-4.9,0.6
		c16.2-2.1,32.6-2.1,48.8,0c-1.6-0.2-3.3-0.5-4.9-0.6c15.9,2.2,31.4,6.4,46.2,12.6c-1.5-0.6-3-1.2-4.4-1.9
		c14.4,6.1,28,14.1,40.4,23.6c-1.2-1-2.5-1.9-3.7-2.9c12.1,9.4,23,20.3,32.5,32.5c-1-1.2-1.9-2.5-2.9-3.7
		c9.6,12.4,17.5,25.9,23.6,40.4c-0.6-1.5-1.2-3-1.9-4.4c6.2,14.8,10.5,30.3,12.6,46.2c-0.2-1.6-0.5-3.3-0.6-4.9
		C362,183.5,362.6,191.6,362.6,199.8c0,9.7,8.5,19,18.5,18.5s18.5-8.1,18.5-18.5c-0.1-40.6-12.5-81.4-36.1-114.4
		c-6.2-8.7-12.9-17-20.3-24.7c-7.3-7.5-15.3-14.2-23.6-20.6c-15.9-12.2-33.6-21.4-52.4-28.3c-38.7-14.2-82.4-15.4-122-4.2
		c-38.1,10.8-73.3,33.3-98.6,64c-6.8,8.2-13.1,16.9-18.6,26s-9.9,18.6-13.9,28.4C6.3,145,2,165.1,0.5,185.6
		c-3.1,40.7,7,82.6,28.2,117.5c20.4,33.7,51.2,61.7,87.2,78c9.8,4.4,19.8,8.3,30.2,11.2c10.6,3,21.5,4.8,32.4,6.1
		c20.8,2.4,41.9,1.1,62.4-3.1c39-7.9,75.7-28.5,103.1-57.3c27.6-28.9,46.9-66.3,52.9-105.8c1.6-10.8,2.7-21.6,2.7-32.5
		c0-9.7-8.5-19-18.5-18.5C371.1,181.8,362.6,189.4,362.6,199.8L362.6,199.8z"/>
	<path class="st0" d="M217.8,288.4v-35.5v-56.5v-13c0-9.7-8.5-19-18.5-18.5s-18.5,8.1-18.5,18.5v35.5v56.5v13
		c0,9.7,8.5,19,18.5,18.5C209.4,306.4,217.8,298.7,217.8,288.4z"/>
	<path class="st0" d="M217.8,122.8v-12.5c0-9.7-8.5-19-18.5-18.5s-18.5,8.1-18.5,18.5v12.5c0,9.7,8.5,19,18.5,18.5
		C209.4,140.8,217.8,133.1,217.8,122.8z"/>
</g>
</svg>
