<?xml version="1.0" encoding="utf-8"?>
<!-- Generator: Adobe Illustrator 25.2.1, SVG Export Plug-In . SVG Version: 6.00 Build 0)  -->
<svg version="1.1" id="Camada_1" xmlns="http://www.w3.org/2000/svg" xmlns:xlink="http://www.w3.org/1999/xlink" x="0px" y="0px"
	 viewBox="0 0 416 473.6" style="enable-background:new 0 0 416 473.6;" xml:space="preserve">
<style type="text/css">
	.st0{fill-rule:evenodd;clip-rule:evenodd;fill:#FFFFFF;}
</style>
<g>
	<path class="st0" d="M239.9,416.8c14.2,24.8-3.5,56.8-31.9,56.8s-46.1-31.9-31.9-56.8H239.9L239.9,416.8z"/>
</g>
<g>
	<path class="st0" d="M28.9,404.4c-37.2,0-37.2-55,0-55c30.2,0,31.9-106.4,31.9-143.7C60.8,117,114,65.6,174.3,53.2
		C163.7,28.4,181.4,0,208,0s44.3,28.4,33.7,53.2c60.3,12.4,113.5,63.9,113.5,152.5c0,37.2,1.8,143.7,31.9,143.7c37.2,0,37.2,55,0,55
		H28.9L28.9,404.4z"/>
</g>
</svg>
