<?xml version="1.0" encoding="utf-8"?>
<!-- Generator: Adobe Illustrator 25.2.1, SVG Export Plug-In . SVG Version: 6.00 Build 0)  -->
<svg version="1.1" id="Camada_1" xmlns="http://www.w3.org/2000/svg" xmlns:xlink="http://www.w3.org/1999/xlink" x="0px" y="0px"
	 viewBox="0 0 341 341" style="enable-background:new 0 0 341 341;" xml:space="preserve">
<style type="text/css">
	.st0{fill:#FFFFFF;}
</style>
<path class="st0" d="M137.3,0C61.7,0,0,61.7,0,137.3C0,213,61.7,274.7,137.3,274.7c32.7,0,62.8-11.6,86.4-30.8l92.9,92.9
	c5.5,5.5,14.6,5.5,20.1,0s5.5-14.4,0-20l-92.9-92.9c19.2-23.6,30.8-53.8,30.8-86.6C274.7,61.7,213,0,137.3,0L137.3,0z M137.3,28.4
	c60.3,0,108.9,48.6,108.9,108.9s-48.6,108.9-108.9,108.9S28.4,197.7,28.4,137.3S77,28.4,137.3,28.4L137.3,28.4z"/>
</svg>
